<mxfile host="app.diagrams.net" modified="2023-08-21T19:33:17.990Z" agent="Mozilla/5.0 (Windows NT 10.0; Win64; x64) AppleWebKit/537.36 (KHTML, like Gecko) Chrome/116.0.0.0 Safari/537.36" etag="Z3M3-Tr_Tz_zxkJK9MRO" version="21.6.8" type="github">
  <diagram name="Page-1" id="DGZIUKRMvxSlnWxIpZr6">
    <mxGraphModel dx="1050" dy="1735" grid="1" gridSize="10" guides="1" tooltips="1" connect="1" arrows="1" fold="1" page="1" pageScale="1" pageWidth="827" pageHeight="1169" math="0" shadow="0">
      <root>
        <mxCell id="0" />
        <mxCell id="1" parent="0" />
        <mxCell id="DjTuysjP9Bc2iNwQ1-7_-207" value="" style="edgeStyle=orthogonalEdgeStyle;rounded=0;orthogonalLoop=1;jettySize=auto;html=1;entryX=0.5;entryY=1;entryDx=0;entryDy=0;endArrow=block;endFill=0;" edge="1" parent="1" source="DjTuysjP9Bc2iNwQ1-7_-199" target="DjTuysjP9Bc2iNwQ1-7_-192">
          <mxGeometry relative="1" as="geometry">
            <mxPoint x="140" y="300" as="targetPoint" />
          </mxGeometry>
        </mxCell>
        <mxCell id="DjTuysjP9Bc2iNwQ1-7_-192" value="&lt;b style=&quot;border-color: var(--border-color);&quot;&gt;AbstractUI&lt;/b&gt;" style="swimlane;whiteSpace=wrap;html=1;" vertex="1" parent="1">
          <mxGeometry x="40" y="120" width="200" height="160" as="geometry" />
        </mxCell>
        <mxCell id="DjTuysjP9Bc2iNwQ1-7_-182" value="&lt;b&gt;book&lt;/b&gt;" style="rounded=0;whiteSpace=wrap;html=1;" vertex="1" parent="DjTuysjP9Bc2iNwQ1-7_-192">
          <mxGeometry y="20" width="200" height="30" as="geometry" />
        </mxCell>
        <mxCell id="DjTuysjP9Bc2iNwQ1-7_-179" value="&lt;i&gt;display_output&lt;/i&gt;(output)" style="text;strokeColor=none;fillColor=none;align=left;verticalAlign=middle;spacingLeft=4;spacingRight=4;overflow=hidden;points=[[0,0.5],[1,0.5]];portConstraint=eastwest;rotatable=0;whiteSpace=wrap;html=1;" vertex="1" parent="DjTuysjP9Bc2iNwQ1-7_-192">
          <mxGeometry y="50" width="200" height="30" as="geometry" />
        </mxCell>
        <mxCell id="DjTuysjP9Bc2iNwQ1-7_-180" value="&lt;i&gt;get_user_input&lt;/i&gt;()" style="text;strokeColor=none;fillColor=none;align=left;verticalAlign=middle;spacingLeft=4;spacingRight=4;overflow=hidden;points=[[0,0.5],[1,0.5]];portConstraint=eastwest;rotatable=0;whiteSpace=wrap;html=1;rotation=0;" vertex="1" parent="DjTuysjP9Bc2iNwQ1-7_-192">
          <mxGeometry y="70" width="200" height="30" as="geometry" />
        </mxCell>
        <mxCell id="DjTuysjP9Bc2iNwQ1-7_-181" value="proces_user_input(user_input)" style="text;strokeColor=none;fillColor=none;align=left;verticalAlign=middle;spacingLeft=4;spacingRight=4;overflow=hidden;points=[[0,0.5],[1,0.5]];portConstraint=eastwest;rotatable=0;whiteSpace=wrap;html=1;" vertex="1" parent="DjTuysjP9Bc2iNwQ1-7_-192">
          <mxGeometry y="90" width="200" height="30" as="geometry" />
        </mxCell>
        <mxCell id="DjTuysjP9Bc2iNwQ1-7_-198" value="run()" style="text;html=1;align=center;verticalAlign=middle;resizable=0;points=[];autosize=1;strokeColor=none;fillColor=none;" vertex="1" parent="DjTuysjP9Bc2iNwQ1-7_-192">
          <mxGeometry y="110" width="50" height="30" as="geometry" />
        </mxCell>
        <mxCell id="DjTuysjP9Bc2iNwQ1-7_-199" value="ConsoleUI" style="swimlane;whiteSpace=wrap;html=1;startSize=30;" vertex="1" parent="1">
          <mxGeometry x="35" y="440" width="210" height="120" as="geometry" />
        </mxCell>
        <mxCell id="DjTuysjP9Bc2iNwQ1-7_-201" value="&lt;i&gt;display_menu&lt;/i&gt;()" style="text;html=1;align=center;verticalAlign=middle;resizable=0;points=[];autosize=1;strokeColor=none;fillColor=none;" vertex="1" parent="DjTuysjP9Bc2iNwQ1-7_-199">
          <mxGeometry y="30" width="110" height="30" as="geometry" />
        </mxCell>
        <mxCell id="DjTuysjP9Bc2iNwQ1-7_-202" value="display_output(output)" style="text;whiteSpace=wrap;html=1;" vertex="1" parent="DjTuysjP9Bc2iNwQ1-7_-199">
          <mxGeometry x="10" y="60" width="150" height="40" as="geometry" />
        </mxCell>
        <mxCell id="DjTuysjP9Bc2iNwQ1-7_-203" value="get_user_input()" style="text;whiteSpace=wrap;html=1;" vertex="1" parent="DjTuysjP9Bc2iNwQ1-7_-199">
          <mxGeometry x="10" y="80" width="120" height="40" as="geometry" />
        </mxCell>
        <mxCell id="DjTuysjP9Bc2iNwQ1-7_-208" value="&lt;b&gt;Field&lt;/b&gt;" style="swimlane;fontStyle=0;childLayout=stackLayout;horizontal=1;startSize=30;horizontalStack=0;resizeParent=1;resizeParentMax=0;resizeLast=0;collapsible=1;marginBottom=0;whiteSpace=wrap;html=1;" vertex="1" parent="1">
          <mxGeometry x="300" y="120" width="140" height="90" as="geometry" />
        </mxCell>
        <mxCell id="DjTuysjP9Bc2iNwQ1-7_-209" value="value" style="text;strokeColor=none;fillColor=none;align=left;verticalAlign=middle;spacingLeft=4;spacingRight=4;overflow=hidden;points=[[0,0.5],[1,0.5]];portConstraint=eastwest;rotatable=0;whiteSpace=wrap;html=1;" vertex="1" parent="DjTuysjP9Bc2iNwQ1-7_-208">
          <mxGeometry y="30" width="140" height="30" as="geometry" />
        </mxCell>
        <mxCell id="DjTuysjP9Bc2iNwQ1-7_-210" value="__value" style="text;strokeColor=none;fillColor=none;align=left;verticalAlign=middle;spacingLeft=4;spacingRight=4;overflow=hidden;points=[[0,0.5],[1,0.5]];portConstraint=eastwest;rotatable=0;whiteSpace=wrap;html=1;" vertex="1" parent="DjTuysjP9Bc2iNwQ1-7_-208">
          <mxGeometry y="60" width="140" height="30" as="geometry" />
        </mxCell>
        <mxCell id="DjTuysjP9Bc2iNwQ1-7_-233" style="edgeStyle=orthogonalEdgeStyle;rounded=0;orthogonalLoop=1;jettySize=auto;html=1;exitX=0.25;exitY=0;exitDx=0;exitDy=0;entryX=0.214;entryY=1;entryDx=0;entryDy=0;entryPerimeter=0;endArrow=block;endFill=0;" edge="1" parent="1" source="DjTuysjP9Bc2iNwQ1-7_-213" target="DjTuysjP9Bc2iNwQ1-7_-210">
          <mxGeometry relative="1" as="geometry" />
        </mxCell>
        <mxCell id="DjTuysjP9Bc2iNwQ1-7_-257" style="edgeStyle=orthogonalEdgeStyle;rounded=0;orthogonalLoop=1;jettySize=auto;html=1;exitX=0.163;exitY=0.008;exitDx=0;exitDy=0;endArrow=diamondThin;endFill=0;endSize=12;exitPerimeter=0;" edge="1" parent="1" source="DjTuysjP9Bc2iNwQ1-7_-217">
          <mxGeometry relative="1" as="geometry">
            <mxPoint x="650" y="140" as="targetPoint" />
          </mxGeometry>
        </mxCell>
        <mxCell id="DjTuysjP9Bc2iNwQ1-7_-213" value="&lt;b&gt;Address&lt;/b&gt;" style="swimlane;fontStyle=0;childLayout=stackLayout;horizontal=1;startSize=30;horizontalStack=0;resizeParent=1;resizeParentMax=0;resizeLast=0;collapsible=1;marginBottom=0;whiteSpace=wrap;html=1;" vertex="1" parent="1">
          <mxGeometry x="280" y="440" width="140" height="60" as="geometry" />
        </mxCell>
        <mxCell id="DjTuysjP9Bc2iNwQ1-7_-214" value="value(value)" style="text;strokeColor=none;fillColor=none;align=left;verticalAlign=middle;spacingLeft=4;spacingRight=4;overflow=hidden;points=[[0,0.5],[1,0.5]];portConstraint=eastwest;rotatable=0;whiteSpace=wrap;html=1;" vertex="1" parent="DjTuysjP9Bc2iNwQ1-7_-213">
          <mxGeometry y="30" width="140" height="30" as="geometry" />
        </mxCell>
        <mxCell id="DjTuysjP9Bc2iNwQ1-7_-234" style="edgeStyle=orthogonalEdgeStyle;rounded=0;orthogonalLoop=1;jettySize=auto;html=1;exitX=0.25;exitY=0;exitDx=0;exitDy=0;entryX=0.369;entryY=1;entryDx=0;entryDy=0;entryPerimeter=0;endArrow=block;endFill=0;" edge="1" parent="1" source="DjTuysjP9Bc2iNwQ1-7_-217" target="DjTuysjP9Bc2iNwQ1-7_-210">
          <mxGeometry relative="1" as="geometry" />
        </mxCell>
        <mxCell id="DjTuysjP9Bc2iNwQ1-7_-217" value="&lt;b&gt;Name&lt;/b&gt;" style="swimlane;fontStyle=0;childLayout=stackLayout;horizontal=1;startSize=30;horizontalStack=0;resizeParent=1;resizeParentMax=0;resizeLast=0;collapsible=1;marginBottom=0;whiteSpace=wrap;html=1;" vertex="1" parent="1">
          <mxGeometry x="440" y="440" width="140" height="60" as="geometry" />
        </mxCell>
        <mxCell id="DjTuysjP9Bc2iNwQ1-7_-218" value="value(value)" style="text;strokeColor=none;fillColor=none;align=left;verticalAlign=middle;spacingLeft=4;spacingRight=4;overflow=hidden;points=[[0,0.5],[1,0.5]];portConstraint=eastwest;rotatable=0;whiteSpace=wrap;html=1;" vertex="1" parent="DjTuysjP9Bc2iNwQ1-7_-217">
          <mxGeometry y="30" width="140" height="30" as="geometry" />
        </mxCell>
        <mxCell id="DjTuysjP9Bc2iNwQ1-7_-235" style="edgeStyle=orthogonalEdgeStyle;rounded=0;orthogonalLoop=1;jettySize=auto;html=1;exitX=0.25;exitY=0;exitDx=0;exitDy=0;entryX=0.5;entryY=1;entryDx=0;entryDy=0;entryPerimeter=0;endArrow=block;endFill=0;" edge="1" parent="1" source="DjTuysjP9Bc2iNwQ1-7_-221" target="DjTuysjP9Bc2iNwQ1-7_-210">
          <mxGeometry relative="1" as="geometry" />
        </mxCell>
        <mxCell id="DjTuysjP9Bc2iNwQ1-7_-258" style="edgeStyle=orthogonalEdgeStyle;rounded=0;orthogonalLoop=1;jettySize=auto;html=1;exitX=0.75;exitY=0;exitDx=0;exitDy=0;endArrow=diamondThin;endFill=0;strokeWidth=1;endSize=12;" edge="1" parent="1" source="DjTuysjP9Bc2iNwQ1-7_-221">
          <mxGeometry relative="1" as="geometry">
            <mxPoint x="705" y="140" as="targetPoint" />
          </mxGeometry>
        </mxCell>
        <mxCell id="DjTuysjP9Bc2iNwQ1-7_-221" value="&lt;b&gt;Phone&lt;/b&gt;" style="swimlane;fontStyle=0;childLayout=stackLayout;horizontal=1;startSize=30;horizontalStack=0;resizeParent=1;resizeParentMax=0;resizeLast=0;collapsible=1;marginBottom=0;whiteSpace=wrap;html=1;" vertex="1" parent="1">
          <mxGeometry x="600" y="440" width="140" height="60" as="geometry" />
        </mxCell>
        <mxCell id="DjTuysjP9Bc2iNwQ1-7_-222" value="value(value)" style="text;strokeColor=none;fillColor=none;align=left;verticalAlign=middle;spacingLeft=4;spacingRight=4;overflow=hidden;points=[[0,0.5],[1,0.5]];portConstraint=eastwest;rotatable=0;whiteSpace=wrap;html=1;" vertex="1" parent="DjTuysjP9Bc2iNwQ1-7_-221">
          <mxGeometry y="30" width="140" height="30" as="geometry" />
        </mxCell>
        <mxCell id="DjTuysjP9Bc2iNwQ1-7_-236" style="edgeStyle=orthogonalEdgeStyle;rounded=0;orthogonalLoop=1;jettySize=auto;html=1;exitX=0.25;exitY=0;exitDx=0;exitDy=0;entryX=0.654;entryY=1.027;entryDx=0;entryDy=0;entryPerimeter=0;endArrow=block;endFill=0;" edge="1" parent="1" source="DjTuysjP9Bc2iNwQ1-7_-225" target="DjTuysjP9Bc2iNwQ1-7_-210">
          <mxGeometry relative="1" as="geometry" />
        </mxCell>
        <mxCell id="DjTuysjP9Bc2iNwQ1-7_-225" value="&lt;b&gt;Birthday&lt;/b&gt;" style="swimlane;fontStyle=0;childLayout=stackLayout;horizontal=1;startSize=30;horizontalStack=0;resizeParent=1;resizeParentMax=0;resizeLast=0;collapsible=1;marginBottom=0;whiteSpace=wrap;html=1;" vertex="1" parent="1">
          <mxGeometry x="760" y="440" width="140" height="60" as="geometry" />
        </mxCell>
        <mxCell id="DjTuysjP9Bc2iNwQ1-7_-226" value="value(value)" style="text;strokeColor=none;fillColor=none;align=left;verticalAlign=middle;spacingLeft=4;spacingRight=4;overflow=hidden;points=[[0,0.5],[1,0.5]];portConstraint=eastwest;rotatable=0;whiteSpace=wrap;html=1;" vertex="1" parent="DjTuysjP9Bc2iNwQ1-7_-225">
          <mxGeometry y="30" width="140" height="30" as="geometry" />
        </mxCell>
        <mxCell id="DjTuysjP9Bc2iNwQ1-7_-237" style="edgeStyle=orthogonalEdgeStyle;rounded=0;orthogonalLoop=1;jettySize=auto;html=1;exitX=0.25;exitY=0;exitDx=0;exitDy=0;entryX=0.803;entryY=1;entryDx=0;entryDy=0;entryPerimeter=0;endArrow=block;endFill=0;" edge="1" parent="1" source="DjTuysjP9Bc2iNwQ1-7_-229" target="DjTuysjP9Bc2iNwQ1-7_-210">
          <mxGeometry relative="1" as="geometry" />
        </mxCell>
        <mxCell id="DjTuysjP9Bc2iNwQ1-7_-259" style="edgeStyle=orthogonalEdgeStyle;rounded=0;orthogonalLoop=1;jettySize=auto;html=1;exitX=0.5;exitY=0;exitDx=0;exitDy=0;entryX=0.5;entryY=1;entryDx=0;entryDy=0;endArrow=diamondThin;endFill=0;endSize=12;" edge="1" parent="1" source="DjTuysjP9Bc2iNwQ1-7_-229" target="DjTuysjP9Bc2iNwQ1-7_-238">
          <mxGeometry relative="1" as="geometry" />
        </mxCell>
        <mxCell id="DjTuysjP9Bc2iNwQ1-7_-229" value="&lt;b&gt;Email&lt;/b&gt;" style="swimlane;fontStyle=0;childLayout=stackLayout;horizontal=1;startSize=30;horizontalStack=0;resizeParent=1;resizeParentMax=0;resizeLast=0;collapsible=1;marginBottom=0;whiteSpace=wrap;html=1;" vertex="1" parent="1">
          <mxGeometry x="920" y="440" width="140" height="60" as="geometry" />
        </mxCell>
        <mxCell id="DjTuysjP9Bc2iNwQ1-7_-230" value="value(value)" style="text;strokeColor=none;fillColor=none;align=left;verticalAlign=middle;spacingLeft=4;spacingRight=4;overflow=hidden;points=[[0,0.5],[1,0.5]];portConstraint=eastwest;rotatable=0;whiteSpace=wrap;html=1;" vertex="1" parent="DjTuysjP9Bc2iNwQ1-7_-229">
          <mxGeometry y="30" width="140" height="30" as="geometry" />
        </mxCell>
        <mxCell id="DjTuysjP9Bc2iNwQ1-7_-238" value="Record" style="swimlane;whiteSpace=wrap;html=1;" vertex="1" parent="1">
          <mxGeometry x="627" y="-140" width="333" height="280" as="geometry" />
        </mxCell>
        <mxCell id="DjTuysjP9Bc2iNwQ1-7_-239" value="address : Optional[Address]&lt;br&gt;birthday : Optional[birthday]&lt;br&gt;email : Optional[Email]&lt;br&gt;name&lt;br&gt;phones : list" style="rounded=0;whiteSpace=wrap;html=1;" vertex="1" parent="DjTuysjP9Bc2iNwQ1-7_-238">
          <mxGeometry y="20" width="330" height="70" as="geometry" />
        </mxCell>
        <mxCell id="DjTuysjP9Bc2iNwQ1-7_-240" value="add_address(address: Address): None" style="text;whiteSpace=wrap;html=1;" vertex="1" parent="DjTuysjP9Bc2iNwQ1-7_-238">
          <mxGeometry y="90" width="250" height="40" as="geometry" />
        </mxCell>
        <mxCell id="DjTuysjP9Bc2iNwQ1-7_-242" value="add_email(email: Email): None" style="text;whiteSpace=wrap;html=1;" vertex="1" parent="DjTuysjP9Bc2iNwQ1-7_-238">
          <mxGeometry y="100" width="250" height="40" as="geometry" />
        </mxCell>
        <mxCell id="DjTuysjP9Bc2iNwQ1-7_-243" value="add_phone(new_phone: Phone): str" style="text;whiteSpace=wrap;html=1;" vertex="1" parent="DjTuysjP9Bc2iNwQ1-7_-238">
          <mxGeometry y="110" width="250" height="40" as="geometry" />
        </mxCell>
        <mxCell id="DjTuysjP9Bc2iNwQ1-7_-244" value="add_to_birthday(birthday: Birthday)" style="text;whiteSpace=wrap;html=1;" vertex="1" parent="DjTuysjP9Bc2iNwQ1-7_-238">
          <mxGeometry y="120" width="250" height="40" as="geometry" />
        </mxCell>
        <mxCell id="DjTuysjP9Bc2iNwQ1-7_-245" value="change_birthday(new_birthday: Birthday): None" style="text;whiteSpace=wrap;html=1;" vertex="1" parent="DjTuysjP9Bc2iNwQ1-7_-238">
          <mxGeometry y="140" width="320" height="40" as="geometry" />
        </mxCell>
        <mxCell id="DjTuysjP9Bc2iNwQ1-7_-246" value="change_address(new_address: Addres): None" style="text;whiteSpace=wrap;html=1;" vertex="1" parent="DjTuysjP9Bc2iNwQ1-7_-238">
          <mxGeometry y="130" width="290" height="40" as="geometry" />
        </mxCell>
        <mxCell id="DjTuysjP9Bc2iNwQ1-7_-247" value="change_email(new_email: Email): None" style="text;whiteSpace=wrap;html=1;" vertex="1" parent="DjTuysjP9Bc2iNwQ1-7_-238">
          <mxGeometry y="150" width="290" height="40" as="geometry" />
        </mxCell>
        <mxCell id="DjTuysjP9Bc2iNwQ1-7_-248" value="change_name(name: Name, new_name: Name): None" style="text;whiteSpace=wrap;html=1;" vertex="1" parent="DjTuysjP9Bc2iNwQ1-7_-238">
          <mxGeometry y="160" width="320" height="40" as="geometry" />
        </mxCell>
        <mxCell id="DjTuysjP9Bc2iNwQ1-7_-249" value="change_phone(old_phone: Phone, new_phone: Phone): str" style="text;whiteSpace=wrap;html=1;" vertex="1" parent="DjTuysjP9Bc2iNwQ1-7_-238">
          <mxGeometry y="170" width="330" height="40" as="geometry" />
        </mxCell>
        <mxCell id="DjTuysjP9Bc2iNwQ1-7_-250" value="check_dublicate_phone(search_phone: str): bool" style="text;whiteSpace=wrap;html=1;" vertex="1" parent="DjTuysjP9Bc2iNwQ1-7_-238">
          <mxGeometry y="180" width="330" height="40" as="geometry" />
        </mxCell>
        <mxCell id="DjTuysjP9Bc2iNwQ1-7_-251" value="days_to_birthday()" style="text;whiteSpace=wrap;html=1;" vertex="1" parent="DjTuysjP9Bc2iNwQ1-7_-238">
          <mxGeometry y="190" width="330" height="40" as="geometry" />
        </mxCell>
        <mxCell id="DjTuysjP9Bc2iNwQ1-7_-252" value="remove_address(): None" style="text;whiteSpace=wrap;html=1;" vertex="1" parent="DjTuysjP9Bc2iNwQ1-7_-238">
          <mxGeometry y="200" width="330" height="40" as="geometry" />
        </mxCell>
        <mxCell id="DjTuysjP9Bc2iNwQ1-7_-253" value="remove_birthday(): None" style="text;whiteSpace=wrap;html=1;" vertex="1" parent="DjTuysjP9Bc2iNwQ1-7_-238">
          <mxGeometry y="210" width="170" height="40" as="geometry" />
        </mxCell>
        <mxCell id="DjTuysjP9Bc2iNwQ1-7_-254" value="remove_email(): None" style="text;whiteSpace=wrap;html=1;" vertex="1" parent="DjTuysjP9Bc2iNwQ1-7_-238">
          <mxGeometry y="220" width="170" height="40" as="geometry" />
        </mxCell>
        <mxCell id="DjTuysjP9Bc2iNwQ1-7_-255" value="remove_phone(phones: Phone, bool): str" style="text;whiteSpace=wrap;html=1;" vertex="1" parent="DjTuysjP9Bc2iNwQ1-7_-238">
          <mxGeometry y="230" width="330" height="40" as="geometry" />
        </mxCell>
        <mxCell id="DjTuysjP9Bc2iNwQ1-7_-266" style="edgeStyle=orthogonalEdgeStyle;rounded=0;orthogonalLoop=1;jettySize=auto;html=1;exitX=0.25;exitY=0;exitDx=0;exitDy=0;entryX=1;entryY=0.25;entryDx=0;entryDy=0;endArrow=open;endFill=0;startArrow=diamondThin;startFill=1;endSize=12;sourcePerimeterSpacing=0;startSize=12;" edge="1" parent="1" source="DjTuysjP9Bc2iNwQ1-7_-260" target="DjTuysjP9Bc2iNwQ1-7_-250">
          <mxGeometry relative="1" as="geometry" />
        </mxCell>
        <mxCell id="DjTuysjP9Bc2iNwQ1-7_-260" value="AddressBook" style="swimlane;whiteSpace=wrap;html=1;" vertex="1" parent="1">
          <mxGeometry x="1080" y="340" width="200" height="160" as="geometry" />
        </mxCell>
        <mxCell id="DjTuysjP9Bc2iNwQ1-7_-261" value="&lt;b&gt;data&lt;/b&gt;" style="rounded=0;whiteSpace=wrap;html=1;" vertex="1" parent="DjTuysjP9Bc2iNwQ1-7_-260">
          <mxGeometry y="20" width="200" height="40" as="geometry" />
        </mxCell>
        <mxCell id="DjTuysjP9Bc2iNwQ1-7_-262" value="add_record(record)" style="text;whiteSpace=wrap;html=1;" vertex="1" parent="DjTuysjP9Bc2iNwQ1-7_-260">
          <mxGeometry y="60" width="170" height="40" as="geometry" />
        </mxCell>
        <mxCell id="DjTuysjP9Bc2iNwQ1-7_-263" value="get_list_birthday(count_day: int)" style="text;whiteSpace=wrap;html=1;" vertex="1" parent="DjTuysjP9Bc2iNwQ1-7_-260">
          <mxGeometry y="80" width="190" height="40" as="geometry" />
        </mxCell>
        <mxCell id="DjTuysjP9Bc2iNwQ1-7_-264" value="load_database(path)" style="text;whiteSpace=wrap;html=1;" vertex="1" parent="DjTuysjP9Bc2iNwQ1-7_-260">
          <mxGeometry y="100" width="170" height="40" as="geometry" />
        </mxCell>
        <mxCell id="DjTuysjP9Bc2iNwQ1-7_-265" value="save_database(path)" style="text;whiteSpace=wrap;html=1;" vertex="1" parent="DjTuysjP9Bc2iNwQ1-7_-260">
          <mxGeometry y="120" width="170" height="40" as="geometry" />
        </mxCell>
      </root>
    </mxGraphModel>
  </diagram>
</mxfile>
